<svg xmlns="http://www.w3.org/2000/svg" width="400" height="250" viewBox="0 0 400 250">
<defs>
<marker id="arrowhead-o" viewBox="0 0 10 10" refX="8" refY="5" markerWidth="6" markerHeight="6" orient="auto">
<path d="M 0 0 L 10 5 L 0 10 z" fill="#fa5"></path>
</marker>
</defs>
<rect width="400" height="250" fill="#245"></rect>
<text x="200" y="17" font-family="sans-serif" font-size="13" fill="lightblue" text-anchor="middle">tun bia zi sin de sia</text>
<line x1="50" y1="46" x2="350" y2="74" stroke="#9ab" stroke-width="0.8" opacity="0.7"></line>
<line x1="80" y1="46" x2="110" y2="74" stroke="#9ab" stroke-width="0.8" opacity="0.7"></line>
<line x1="110" y1="46" x2="380" y2="74" stroke="#9ab" stroke-width="0.8" opacity="0.7"></line>
<line x1="140" y1="46" x2="260" y2="74" stroke="#9ab" stroke-width="0.8" opacity="0.7"></line>
<line x1="170" y1="46" x2="80" y2="74" stroke="#9ab" stroke-width="0.8" opacity="0.7"></line>
<line x1="200" y1="46" x2="140" y2="74" stroke="#9ab" stroke-width="0.8" opacity="0.7"></line>
<line x1="230" y1="46" x2="230" y2="74" stroke="#9ab" stroke-width="0.8" opacity="0.7"></line>
<line x1="260" y1="46" x2="50" y2="74" stroke="#9ab" stroke-width="0.8" opacity="0.7"></line>
<line x1="290" y1="46" x2="290" y2="74" stroke="#9ab" stroke-width="0.8" opacity="0.7"></line>
<line x1="320" y1="46" x2="200" y2="74" stroke="#9ab" stroke-width="0.8" opacity="0.7"></line>
<line x1="350" y1="46" x2="170" y2="74" stroke="#9ab" stroke-width="0.8" opacity="0.7"></line>
<line x1="380" y1="46" x2="320" y2="74" stroke="#9ab" stroke-width="0.8" opacity="0.7"></line>
<line x1="50" y1="102" x2="290" y2="124" stroke="#9ab" stroke-width="0.8" opacity="0.7"></line>
<line x1="80" y1="102" x2="260" y2="124" stroke="#9ab" stroke-width="0.8" opacity="0.7"></line>
<line x1="110" y1="102" x2="50" y2="124" stroke="#9ab" stroke-width="0.8" opacity="0.7"></line>
<line x1="140" y1="102" x2="350" y2="124" stroke="#9ab" stroke-width="0.8" opacity="0.7"></line>
<line x1="170" y1="102" x2="200" y2="124" stroke="#9ab" stroke-width="0.8" opacity="0.7"></line>
<line x1="200" y1="102" x2="80" y2="124" stroke="#9ab" stroke-width="0.8" opacity="0.7"></line>
<line x1="230" y1="102" x2="230" y2="124" stroke="#9ab" stroke-width="0.8" opacity="0.7"></line>
<line x1="260" y1="102" x2="320" y2="124" stroke="#9ab" stroke-width="0.8" opacity="0.7"></line>
<line x1="290" y1="102" x2="140" y2="124" stroke="#9ab" stroke-width="0.8" opacity="0.7"></line>
<line x1="320" y1="102" x2="110" y2="124" stroke="#9ab" stroke-width="0.8" opacity="0.7"></line>
<line x1="350" y1="102" x2="380" y2="124" stroke="#9ab" stroke-width="0.8" opacity="0.7"></line>
<line x1="380" y1="102" x2="170" y2="124" stroke="#9ab" stroke-width="0.8" opacity="0.7"></line>
<line x1="50" y1="152" x2="290" y2="174" stroke="#9ab" stroke-width="0.8" opacity="0.7"></line>
<line x1="80" y1="152" x2="50" y2="174" stroke="#9ab" stroke-width="0.8" opacity="0.7"></line>
<line x1="110" y1="152" x2="380" y2="174" stroke="#9ab" stroke-width="0.8" opacity="0.7"></line>
<line x1="140" y1="152" x2="200" y2="174" stroke="#9ab" stroke-width="0.8" opacity="0.7"></line>
<line x1="170" y1="152" x2="140" y2="174" stroke="#9ab" stroke-width="0.8" opacity="0.7"></line>
<line x1="200" y1="152" x2="80" y2="174" stroke="#9ab" stroke-width="0.8" opacity="0.7"></line>
<line x1="230" y1="152" x2="320" y2="174" stroke="#9ab" stroke-width="0.8" opacity="0.7"></line>
<line x1="260" y1="152" x2="260" y2="174" stroke="#9ab" stroke-width="0.8" opacity="0.7"></line>
<line x1="290" y1="152" x2="170" y2="174" stroke="#9ab" stroke-width="0.8" opacity="0.7"></line>
<line x1="320" y1="152" x2="350" y2="174" stroke="#9ab" stroke-width="0.8" opacity="0.7"></line>
<line x1="350" y1="152" x2="230" y2="174" stroke="#9ab" stroke-width="0.8" opacity="0.7"></line>
<line x1="380" y1="152" x2="110" y2="174" stroke="#9ab" stroke-width="0.8" opacity="0.7"></line>
<line x1="110" y1="202" x2="140" y2="230" stroke="#9ab" stroke-width="0.8" opacity="0.7"></line>
<line x1="170" y1="202" x2="50" y2="230" stroke="#9ab" stroke-width="0.8" opacity="0.7"></line>
<line x1="230" y1="202" x2="80" y2="230" stroke="#9ab" stroke-width="0.8" opacity="0.7"></line>
<line x1="260" y1="202" x2="110" y2="230" stroke="#9ab" stroke-width="0.8" opacity="0.7"></line>
<line x1="290" y1="202" x2="170" y2="230" stroke="#9ab" stroke-width="0.8" opacity="0.7"></line>
<line x1="320" y1="202" x2="200" y2="230" stroke="#9ab" stroke-width="0.8" opacity="0.7"></line>
<path d="M 46 40 H 18 Q 10 40 10 48 V 222 Q 10 230 18 230 H 20.5" stroke="#fa5" stroke-width="1.5" fill="none"></path>
<circle cx="26" cy="230" r="5.5" fill="#245" stroke="#fa5" stroke-width="1.2"></circle>
<line x1="23.5" y1="230" x2="28.5" y2="230" stroke="#fa5" stroke-width="1.2"></line>
<line x1="26" y1="227.5" x2="26" y2="232.5" stroke="#fa5" stroke-width="1.2"></line>
<line x1="31.5" y1="230" x2="45" y2="230" stroke="#fa5" stroke-width="1.5" marker-end="url(#arrowhead-o)"></line>
<rect x="46.0" y="74" width="98" height="28" rx="3" fill="rgba(204, 238, 255, 0.04)" stroke="#cef" stroke-width="1"></rect>
<text x="95" y="92" font-family="sans-serif" font-size="10" fill="lightblue" text-anchor="middle">fai hie</text>
<rect x="166.0" y="74" width="98" height="28" rx="3" fill="rgba(204, 238, 255, 0.04)" stroke="#cef" stroke-width="1"></rect>
<text x="215" y="92" font-family="sans-serif" font-size="10" fill="lightblue" text-anchor="middle">fai hie</text>
<rect x="286.0" y="74" width="98" height="28" rx="3" fill="rgba(204, 238, 255, 0.04)" stroke="#cef" stroke-width="1"></rect>
<text x="335" y="92" font-family="sans-serif" font-size="10" fill="lightblue" text-anchor="middle">fai hie</text>
<rect x="46.0" y="124" width="98" height="28" rx="3" fill="rgba(204, 238, 255, 0.04)" stroke="#cef" stroke-width="1"></rect>
<text x="95" y="142" font-family="sans-serif" font-size="10" fill="lightblue" text-anchor="middle">fai hie</text>
<rect x="166.0" y="124" width="98" height="28" rx="3" fill="rgba(204, 238, 255, 0.04)" stroke="#cef" stroke-width="1"></rect>
<text x="215" y="142" font-family="sans-serif" font-size="10" fill="lightblue" text-anchor="middle">fai hie</text>
<rect x="286.0" y="124" width="98" height="28" rx="3" fill="rgba(204, 238, 255, 0.04)" stroke="#cef" stroke-width="1"></rect>
<text x="335" y="142" font-family="sans-serif" font-size="10" fill="lightblue" text-anchor="middle">fai hie</text>
<rect x="46.0" y="174" width="98" height="28" rx="3" fill="rgba(204, 238, 255, 0.04)" stroke="#cef" stroke-width="1"></rect>
<text x="95" y="192" font-family="sans-serif" font-size="10" fill="lightblue" text-anchor="middle">fai hie</text>
<rect x="166.0" y="174" width="98" height="28" rx="3" fill="rgba(204, 238, 255, 0.04)" stroke="#cef" stroke-width="1"></rect>
<text x="215" y="192" font-family="sans-serif" font-size="10" fill="lightblue" text-anchor="middle">fai hie</text>
<rect x="286.0" y="174" width="98" height="28" rx="3" fill="rgba(204, 238, 255, 0.04)" stroke="#cef" stroke-width="1"></rect>
<text x="335" y="192" font-family="sans-serif" font-size="10" fill="lightblue" text-anchor="middle">fai hie</text>
<circle cx="50" cy="46" r="4" fill="#cef"></circle>
<circle cx="80" cy="46" r="4" fill="#cef"></circle>
<circle cx="110" cy="46" r="4" fill="#cef"></circle>
<circle cx="140" cy="46" r="4" fill="#cef"></circle>
<circle cx="170" cy="46" r="4" fill="#cef"></circle>
<circle cx="200" cy="46" r="4" fill="#cef"></circle>
<circle cx="230" cy="46" r="4" fill="#cef"></circle>
<circle cx="260" cy="46" r="4" fill="#cef"></circle>
<circle cx="290" cy="46" r="4" fill="#cef"></circle>
<circle cx="320" cy="46" r="4" fill="#cef"></circle>
<circle cx="350" cy="46" r="4" fill="#cef"></circle>
<circle cx="380" cy="46" r="4" fill="#cef"></circle>
<circle cx="50" cy="230" r="4" fill="#cef"></circle>
<circle cx="80" cy="230" r="4" fill="#cef"></circle>
<circle cx="110" cy="230" r="4" fill="#cef"></circle>
<circle cx="140" cy="230" r="4" fill="#cef"></circle>
<circle cx="170" cy="230" r="4" fill="#cef"></circle>
<circle cx="200" cy="230" r="4" fill="#cef"></circle>
</svg>
