<svg xmlns="http://www.w3.org/2000/svg" width="200" height="200" viewBox="0 0 200 200" style="margin-left:35px">
<rect width="200" height="200" fill="#348"></rect>
<circle cx="60" cy="40" r="3" fill="#cef"></circle>
<circle cx="60" cy="40" r="45" stroke="#cef" fill="none" stroke-dasharray="2 10"></circle>
<circle cx="140" cy="40" r="3" fill="#cef"></circle>
<circle cx="140" cy="40" r="45" stroke="#cef" fill="none" stroke-dasharray="2 10"></circle>
<circle cx="170" cy="100" r="3" fill="#cef"></circle>
<circle cx="170" cy="100" r="45" stroke="#cef" fill="none" stroke-dasharray="2 10"></circle>
<circle cx="100" cy="100" r="3" fill="#cef"></circle>
<circle cx="100" cy="100" r="45" stroke="#cef" fill="none" stroke-dasharray="2 10"></circle>
<circle cx="140" cy="160" r="3" fill="#cef"></circle>
<circle cx="140" cy="160" r="45" stroke="#cef" fill="none" stroke-dasharray="2 10"></circle>
<circle cx="60" cy="160" r="3" fill="#cef"></circle>
<circle cx="60" cy="160" r="45" stroke="#cef" fill="none" stroke-dasharray="2 10"></circle>
<circle cx="30" cy="100" r="3" fill="#cef"></circle>
<circle cx="30" cy="100" r="45" stroke="#cef" fill="none" stroke-dasharray="2 10"></circle>
<rect x="68" y="100" width="5" height="5" fill="#f04"></rect>
<polygon points="65,85 71,85 68,90" fill="#3ef"></polygon>
<polygon points="90,85 96,85 93,90" fill="#3ef"></polygon>
</svg>
