<svg xmlns="http://www.w3.org/2000/svg" width="200" height="200" viewBox="0 0 200 200" style="margin-left:35px">
<rect width="200" height="200" fill="#348"></rect>
<circle cx="10" cy="30" r="3" fill="#cef"></circle>
<circle cx="35" cy="10" r="3" fill="#cef"></circle>
<circle cx="30" cy="30" r="3" fill="#cef"></circle>
<circle cx="60" cy="25" r="3" fill="#cef"></circle>
<circle cx="190" cy="30" r="3" fill="#cef"></circle>
<circle cx="165" cy="10" r="3" fill="#cef"></circle>
<circle cx="170" cy="30" r="3" fill="#cef"></circle>
<circle cx="130" cy="20" r="3" fill="#cef"></circle>
<circle cx="15" cy="85" r="3" fill="#cef"></circle>
<circle cx="30" cy="80" r="3" fill="#cef"></circle>
<circle cx="50" cy="80" r="3" fill="#cef"></circle>
<circle cx="180" cy="85" r="3" fill="#cef"></circle>
<circle cx="165" cy="85" r="3" fill="#cef"></circle>
<circle cx="150" cy="80" r="3" fill="#cef"></circle>
<circle cx="75" cy="60" r="3" fill="#cef"></circle>
<circle cx="125" cy="60" r="3" fill="#cef"></circle>
<rect x="5" y="170" width="5" height="5" fill="#c9f"></rect>
<rect x="25" y="170" width="5" height="5" fill="#c9f"></rect>
<rect x="25" y="185" width="5" height="5" fill="#c9f"></rect>
<rect x="185" y="170" width="5" height="5" fill="#c9f"></rect>
<rect x="165" y="170" width="5" height="5" fill="#c9f"></rect>
<rect x="160" y="185" width="5" height="5" fill="#c9f"></rect>
<rect x="65" y="175" width="5" height="5" fill="#c9f"></rect>
<rect x="55" y="160" width="5" height="5" fill="#c9f"></rect>
<rect x="125" y="170" width="5" height="5" fill="#c9f"></rect>
<rect x="135" y="150" width="5" height="5" fill="#c9f"></rect>
<rect x="155" y="105" width="5" height="5" fill="#c9f"></rect>
<rect x="170" y="105" width="5" height="5" fill="#c9f"></rect>
<rect x="185" y="110" width="5" height="5" fill="#c9f"></rect>
<rect x="5" y="105" width="5" height="5" fill="#c9f"></rect>
<rect x="25" y="110" width="5" height="5" fill="#c9f"></rect>
<rect x="45" y="110" width="5" height="5" fill="#c9f"></rect>
<rect x="95" y="150" width="5" height="5" fill="#c9f"></rect>
</svg>
